<svg preserveAspectRatio="none" width="100%" height="100%" overflow="visible" style="display: block;" viewBox="0 0 23.5185 23.5166" fill="none" xmlns="http://www.w3.org/2000/svg">
<g id="Group 2147247491" filter="url(#filter0_d_0_54)">
<path id="Union" d="M9.86137 2.29008C14.0425 2.29023 17.4316 5.67923 17.4317 9.86039C17.4316 11.4032 16.9693 12.8375 16.1768 14.0342L19.5127 17.3692C20.104 17.9604 20.1039 18.9194 19.5127 19.5108C18.9214 20.1021 17.9625 20.1021 17.3711 19.5108L14.0362 16.1748C12.8393 16.9678 11.4046 17.4316 9.86137 17.4317C5.68039 17.4314 2.29034 14.0414 2.29008 9.86039C2.29019 5.6793 5.68031 2.29034 9.86137 2.29008ZM9.86137 5.8223C7.63154 5.82256 5.8233 7.63051 5.82328 9.86039C5.82354 12.0901 7.63169 13.8982 9.86137 13.8985C12.0911 13.8983 13.8982 12.0901 13.8985 9.86039C13.8985 7.63046 12.0913 5.82248 9.86137 5.8223Z" fill="var(--fill-0, #121212)"/>
</g>
<defs>
<filter id="filter0_d_0_54" x="0" y="0" width="23.5185" height="23.5166" filterUnits="userSpaceOnUse" color-interpolation-filters="sRGB">
<feFlood flood-opacity="0" result="BackgroundImageFix"/>
<feColorMatrix in="SourceAlpha" type="matrix" values="0 0 0 0 0 0 0 0 0 0 0 0 0 0 0 0 0 0 127 0" result="hardAlpha"/>
<feOffset dx="0.636132" dy="0.636132"/>
<feGaussianBlur stdDeviation="1.4631"/>
<feComposite in2="hardAlpha" operator="out"/>
<feColorMatrix type="matrix" values="0 0 0 0 0.0837158 0 0 0 0 0.06 0 0 0 0 0.2 0 0 0 0.2 0"/>
<feBlend mode="normal" in2="BackgroundImageFix" result="effect1_dropShadow_0_54"/>
<feBlend mode="normal" in="SourceGraphic" in2="effect1_dropShadow_0_54" result="shape"/>
</filter>
</defs>
</svg>
