<svg preserveAspectRatio="none" width="100%" height="100%" overflow="visible" style="display: block;" viewBox="0 0 13.3584 13.3584" fill="none" xmlns="http://www.w3.org/2000/svg">
<path id="Subtract" d="M6.67969 0C10.3685 0.000157129 13.3584 2.99086 13.3584 6.67969C13.3582 10.3684 10.3684 13.3582 6.67969 13.3584C2.99086 13.3584 0.000157132 10.3685 0 6.67969C0 2.99076 2.99076 0 6.67969 0ZM6.2207 2.88184C5.95756 2.88225 5.74414 3.09614 5.74414 3.35938V5.74512H3.3584C3.09522 5.74537 2.88102 5.95848 2.88086 6.22168C2.88102 6.48488 3.09522 6.69896 3.3584 6.69922H5.74414V9.08496C5.74451 9.34788 5.95779 9.56111 6.2207 9.56152C6.48397 9.56152 6.69787 9.34814 6.69824 9.08496V6.69922H9.08398C9.3472 6.69901 9.56039 6.48491 9.56055 6.22168C9.56039 5.95845 9.3472 5.74533 9.08398 5.74512H6.69824V3.35938C6.69824 3.09588 6.4842 2.88184 6.2207 2.88184Z" fill="var(--fill-0, #010101)"/>
</svg>
