<svg preserveAspectRatio="none" width="100%" height="100%" overflow="visible" style="display: block;" viewBox="0 0 23.3787 23.3787" fill="none" xmlns="http://www.w3.org/2000/svg">
<g id="ico_benefit">
<path id="bg" d="M0 9.3515C0 6.07817 0 4.4415 0.637033 3.19125C1.19738 2.09151 2.09151 1.19738 3.19125 0.637033C4.4415 0 6.07817 0 9.3515 0H14.0272C17.3006 0 18.9372 0 20.1875 0.637033C21.2872 1.19738 22.1814 2.09151 22.7417 3.19125C23.3787 4.4415 23.3787 6.07817 23.3787 9.3515V14.0272C23.3787 17.3006 23.3787 18.9372 22.7417 20.1875C22.1814 21.2872 21.2872 22.1814 20.1875 22.7417C18.9372 23.3787 17.3006 23.3787 14.0272 23.3787H9.3515C6.07817 23.3787 4.4415 23.3787 3.19125 22.7417C2.09151 22.1814 1.19738 21.2872 0.637033 20.1875C0 18.9372 0 17.3006 0 14.0272V9.3515Z" fill="var(--fill-0, #D2D9EB)"/>
<path id="ribbon" d="M12.5323 8.4154C12.8682 7.64199 13.3399 6.95273 13.8954 6.43584C14.4689 5.90237 15.1932 5.50071 16.007 5.46349C16.8491 5.42539 17.6464 5.78355 18.3132 6.50005C18.9753 7.2125 19.2756 8.03788 19.0323 8.87772C18.8093 9.64429 18.1895 10.2086 17.5518 10.6023C17.4013 10.6951 17.2406 10.7798 17.0748 10.8628H23.3785V12.5323H15.0879C16.0769 13.3324 16.6593 14.3063 16.9904 15.0732C17.1605 15.4675 17.2692 15.8157 17.3353 16.0676C17.3682 16.1929 17.3901 16.2977 17.405 16.3721C17.4123 16.4084 17.4195 16.4399 17.4234 16.462C17.4251 16.4727 17.4259 16.4845 17.427 16.4914L17.4289 16.5006V16.5042L17.4307 16.5061C17.498 16.9615 17.1833 17.3874 16.7281 17.4564C16.272 17.5247 15.8452 17.2094 15.7759 16.7537V16.7501C15.7744 16.7414 15.7711 16.7241 15.7667 16.7024C15.7576 16.6572 15.7411 16.5845 15.7172 16.4932C15.6685 16.3081 15.5862 16.0401 15.4548 15.7355C15.1897 15.1215 14.7359 14.3749 13.9835 13.7853C13.3912 13.3217 12.9031 13.034 12.5323 12.8552V23.3785H10.8628V12.8588C10.493 13.0378 10.0078 13.3243 9.41893 13.7853C8.66594 14.3751 8.21278 15.1212 7.94757 15.7355C7.81605 16.0404 7.73388 16.3079 7.68522 16.4932C7.66124 16.5847 7.64478 16.6571 7.63568 16.7024C7.63129 16.7242 7.62803 16.7414 7.62651 16.7501V16.7537C7.55737 17.2091 7.13002 17.5241 6.67434 17.4564C6.21876 17.3876 5.90426 16.9618 5.97168 16.5061L5.97352 16.5042V16.5006L5.97535 16.4914C5.97648 16.4844 5.97727 16.4728 5.97902 16.462C5.98289 16.4399 5.99002 16.4085 5.99737 16.3721C6.01236 16.2977 6.03416 16.1931 6.06708 16.0676C6.13325 15.8156 6.24178 15.4678 6.41199 15.0732C6.74318 14.306 7.32491 13.3326 8.31449 12.5323H0V10.8628H6.3276C6.1618 10.7798 6.00115 10.6951 5.8506 10.6023C5.21303 10.2086 4.59316 9.64408 4.37006 8.87772C4.1267 8.03757 4.42656 7.21268 5.08923 6.50005C5.75617 5.78336 6.553 5.42517 7.39535 5.46349C8.20879 5.50096 8.93368 5.90256 9.50699 6.43584C10.0595 6.95025 10.5281 7.63563 10.8628 8.40439V0H12.5323V8.4154ZM7.32013 7.133C7.04845 7.12057 6.7048 7.21811 6.31292 7.63935C5.91773 8.06441 5.94508 8.30291 5.97719 8.41356C6.03182 8.59741 6.23735 8.87676 6.72938 9.18043C7.4787 9.64237 8.59382 9.97677 9.6556 10.1069C9.45844 9.12855 8.96475 8.21556 8.3677 7.65953C7.98553 7.30419 7.62044 7.14716 7.32013 7.133ZM16.0823 7.133C15.7818 7.14689 15.4172 7.30384 15.0347 7.65953C14.4373 8.21549 13.944 9.12809 13.7468 10.1069C14.809 9.97666 15.9238 9.64265 16.673 9.18043C17.1654 8.87653 17.3708 8.59741 17.4252 8.41356C17.4573 8.30297 17.4839 8.06392 17.0895 7.63935C16.6979 7.21845 16.3538 7.12076 16.0823 7.133Z" fill="var(--fill-0, #3617CE)"/>
</g>
</svg>
