<svg preserveAspectRatio="none" width="100%" height="100%" overflow="visible" style="display: block;" viewBox="0 0 12.4043 13.3584" fill="none" xmlns="http://www.w3.org/2000/svg">
<path id="Union" d="M9.18359 0C9.64471 0 10.0186 0.373841 10.0186 0.834961V1.9082H10.877C11.72 1.9082 12.4041 2.59155 12.4043 3.43457V11.832C12.404 12.675 11.72 13.3584 10.877 13.3584H1.52637C0.683428 13.3583 0.000258728 12.6749 0 11.832V3.43457C0.000189356 2.59161 0.683385 1.9083 1.52637 1.9082H2.38574V0.834961C2.38574 0.373997 2.75882 0.000252607 3.21973 0C3.68085 0 4.05469 0.373841 4.05469 0.834961V1.9082H8.34863V0.834961C8.34863 0.373955 8.72263 0.000184235 9.18359 0ZM6.20117 5.03516C6.02195 5.03556 5.85938 5.13668 5.77832 5.29199L5.74902 5.3623L4.84766 8.06348L4.10449 5.38477C4.03371 5.13126 3.77028 4.98227 3.5166 5.05273C3.26334 5.12353 3.11443 5.38714 3.18457 5.64062L3.5332 6.89551H2.94727C2.68401 6.89579 2.46973 7.10973 2.46973 7.37305C2.47002 7.63612 2.68419 7.85031 2.94727 7.85059H3.79883L4.34668 9.82422C4.40289 10.026 4.58555 10.1682 4.79492 10.1738C5.00439 10.1791 5.19325 10.0463 5.25977 9.84766L6.20117 7.02051L7.14355 9.84766C7.20992 10.0463 7.39904 10.1788 7.6084 10.1738C7.81795 10.1685 7.99931 10.0261 8.05566 9.82422L8.60449 7.85059H9.45605C9.71933 7.85054 9.9333 7.63627 9.93359 7.37305C9.93359 7.10958 9.71951 6.89555 9.45605 6.89551H8.87012L9.21875 5.64062C9.28898 5.38695 9.14032 5.12332 8.88672 5.05273C8.63321 4.98267 8.36953 5.13144 8.29883 5.38477L7.55469 8.06348L6.6543 5.3623C6.58922 5.16774 6.40637 5.03516 6.20117 5.03516Z" fill="var(--fill-0, #010101)"/>
</svg>
