<svg preserveAspectRatio="none" width="100%" height="100%" overflow="visible" style="display: block;" viewBox="0 0 9.54199 13.3584" fill="none" xmlns="http://www.w3.org/2000/svg">
<path id="Subtract" d="M8.20605 0C8.94384 0 9.54199 0.598153 9.54199 1.33594V12.0225C9.54199 12.7602 8.94384 13.3584 8.20605 13.3584H1.33594C0.598153 13.3584 0 12.7602 0 12.0225V1.33594C0 0.598153 0.598153 0 1.33594 0H8.20605ZM3.33984 10.4961C3.07635 10.4961 2.8623 10.7101 2.8623 10.9736C2.86249 11.237 3.07647 11.4502 3.33984 11.4502H6.20215C6.46553 11.4502 6.6795 11.237 6.67969 10.9736C6.67969 10.7101 6.46564 10.4961 6.20215 10.4961H3.33984Z" fill="var(--fill-0, #010101)"/>
</svg>
