<svg preserveAspectRatio="none" width="100%" height="100%" overflow="visible" style="display: block;" viewBox="0 0 13.3584 13.3581" fill="none" xmlns="http://www.w3.org/2000/svg">
<path id="Union" d="M6.67676 0C7.67787 2.54134e-05 8.58703 0.165115 9.4043 0.495117C10.2258 0.821238 10.931 1.28897 11.5195 1.89746C12.112 2.50586 12.5662 3.23315 12.8809 4.08008C13.1996 4.9272 13.3584 5.8683 13.3584 6.90234C13.3584 7.52259 13.2974 8.15473 13.1748 8.79883C13.0563 9.44311 12.8867 10.074 12.666 10.6904C12.4856 11.1944 12.2727 11.6678 12.0322 12.1133V12.1152C11.8648 12.599 11.5568 12.9728 11.0977 13.1855L11.0967 13.1846C10.6453 13.3995 10.1538 13.4077 9.65625 13.248L9.65137 13.2461C9.15323 13.0795 8.76695 12.7785 8.54395 12.334L8.54199 12.3301L8.54297 12.3291C8.32655 11.8857 8.32198 11.409 8.49316 10.9287L9.38672 8.35449L9.3877 8.35254C9.55842 7.86896 9.86456 7.4929 10.3203 7.2793V7.28027C10.7073 7.09545 11.1221 7.06339 11.5449 7.15918C11.5475 7.07343 11.5498 6.98785 11.5498 6.90234C11.5498 6.13099 11.434 5.43099 11.2012 4.80273C10.9683 4.17048 10.637 3.62717 10.208 3.17383C9.78298 2.72046 9.2697 2.37248 8.66895 2.12988C8.07231 1.88333 7.40824 1.75979 6.67676 1.75977C5.94941 1.75977 5.28527 1.88339 4.68457 2.12988C4.08787 2.37248 3.57464 2.72044 3.14551 3.17383C2.71637 3.62721 2.3853 4.17038 2.15234 4.80273C1.92355 5.43103 1.80859 6.13093 1.80859 6.90234C1.80859 6.98491 1.81011 7.0676 1.8125 7.15039C2.22041 7.06645 2.62045 7.10165 2.99414 7.28027V7.2793C3.44969 7.49289 3.75508 7.86915 3.92578 8.35254L3.92676 8.35449L4.82129 10.9287C4.99232 11.4088 4.98772 11.8859 4.77148 12.3291L4.77246 12.3301L4.76953 12.335C4.54649 12.7793 4.16007 13.0796 3.66211 13.2461L3.65723 13.248C3.1597 13.4077 2.66819 13.3995 2.2168 13.1846L2.21582 13.1855C1.75684 12.9728 1.44871 12.5989 1.28125 12.1152L1.19629 11.8701C1.00889 11.4962 0.838173 11.1036 0.6875 10.6904C0.466803 10.074 0.296257 9.44311 0.177734 8.79883C0.0592845 8.15477 7.95233e-06 7.52256 0 6.90234C0 5.8683 0.157958 4.9272 0.472656 4.08008C0.791359 3.23333 1.24478 2.50577 1.83301 1.89746C2.42153 1.28897 3.12499 0.821238 3.94238 0.495117C4.76385 0.165034 5.67547 0 6.67676 0Z" fill="var(--fill-0, #010101)"/>
</svg>
