<svg preserveAspectRatio="none" width="100%" height="100%" overflow="visible" style="display: block;" viewBox="0 0 28.5889 29.0803" fill="none" xmlns="http://www.w3.org/2000/svg">
<g id="Group 2147247490">
<rect id="Rectangle 240651455" width="13.7405" height="21.5921" rx="3.92585" fill="var(--fill-0, #C7C7C7)"/>
<g id="Union" filter="url(#filter1_d_0_64)">
<path d="M15.5682 15.0656C17.8473 13.173 21.2103 13.3094 23.3328 15.469C25.5214 17.6967 25.5884 21.2607 23.5369 23.5715L23.532 23.5774L23.5125 23.5989L23.5066 23.6028L23.366 23.7531L23.367 23.7541L23.3582 23.7629L23.3416 23.7824L23.3221 23.8L23.3133 23.8088L23.3123 23.8078C21.1248 26.0133 17.6394 26.0838 15.3689 24.0168L15.3602 24.01L15.3387 23.9924L15.3211 23.9739L15.3201 23.9729L15.3113 23.9651V23.9641L15.159 23.8176L15.1492 23.8088L13.74 22.3733L12.3582 23.7815L12.3406 23.8L12.3221 23.8176L12.159 23.9748L12.1502 23.9846L12.1395 23.9944L12.1307 24.0022C9.92506 26.0264 6.55783 26.0232 4.35625 23.9924L4.34746 23.9846L4.15605 23.799L4.14726 23.7903C1.88858 21.4913 1.89011 17.7674 4.14824 15.469C6.41175 13.1661 10.0848 13.1659 12.3484 15.469L13.7391 16.884L15.1316 15.469L15.1443 15.4553L15.158 15.4416L15.3211 15.2844L15.323 15.2824L15.3377 15.2688L15.3426 15.2629L15.3484 15.258L15.3641 15.2444L15.367 15.2414L15.5301 15.0979L15.5379 15.091L15.5486 15.0813L15.5682 15.0656ZM9.63848 18.2024C8.86985 17.4205 7.62697 17.4205 6.8582 18.2024C6.08492 18.9898 6.08473 20.2702 6.85723 21.0569C7.60021 21.8129 8.78855 21.837 9.55937 21.133L9.66289 21.0324L11.0408 19.6291L9.63848 18.2024ZM20.616 18.1965C19.8711 17.4453 18.6862 17.4239 17.9178 18.1301L17.7977 18.2463L16.4393 19.6281L17.8426 21.0559H17.8416C18.6102 21.8379 19.8531 21.8376 20.6219 21.0559C21.3449 20.3198 21.3926 19.1523 20.7625 18.3606L20.616 18.1965Z" fill="var(--fill-0, #121212)"/>
</g>
</g>
<defs>
<filter id="filter1_d_0_64" x="0.163871" y="11.4509" width="28.425" height="17.6294" filterUnits="userSpaceOnUse" color-interpolation-filters="sRGB">
<feFlood flood-opacity="0" result="BackgroundImageFix"/>
<feColorMatrix in="SourceAlpha" type="matrix" values="0 0 0 0 0 0 0 0 0 0 0 0 0 0 0 0 0 0 127 0" result="hardAlpha"/>
<feOffset dx="0.636132" dy="0.636132"/>
<feGaussianBlur stdDeviation="1.4631"/>
<feComposite in2="hardAlpha" operator="out"/>
<feColorMatrix type="matrix" values="0 0 0 0 0.0837158 0 0 0 0 0.06 0 0 0 0 0.2 0 0 0 0.2 0"/>
<feBlend mode="normal" in2="BackgroundImageFix" result="effect1_dropShadow_0_64"/>
<feBlend mode="normal" in="SourceGraphic" in2="effect1_dropShadow_0_64" result="shape"/>
</filter>
</defs>
</svg>
