<svg preserveAspectRatio="none" width="100%" height="100%" overflow="visible" style="display: block;" viewBox="0 0 15.2672 8.58779" fill="none" xmlns="http://www.w3.org/2000/svg">
<g id="Union">
<path d="M3.86373 0C4.43629 5.39162e-07 4.90007 0.459389 4.90007 1.02652C4.90007 1.59366 4.43629 2.05305 3.86373 2.05305C2.87477 2.05305 2.07268 2.84753 2.07268 3.82713V4.29389C2.07268 5.53128 3.08574 6.53474 4.33496 6.53474H6.21989C7.46911 6.53474 8.48217 5.53128 8.48217 4.29389C8.48217 3.72676 8.94596 3.26737 9.51852 3.26737C10.0911 3.26737 10.5549 3.72676 10.5549 4.29389C10.5549 6.66555 8.61423 8.58779 6.21989 8.58779H4.33496C1.94063 8.58779 3.45165e-07 6.66555 0 4.29389V3.82713C5.24268e-07 1.71326 1.72965 9.05508e-08 3.86373 0Z" fill="var(--fill-0, #010101)"/>
<path d="M10.9322 0C13.3265 0 15.2672 1.92224 15.2672 4.29389V4.76066C15.2672 6.87453 13.5375 8.58779 11.4034 8.58779C10.8309 8.58779 10.3671 8.1284 10.3671 7.56126C10.3671 6.99413 10.8309 6.53474 11.4034 6.53474C12.3924 6.53474 13.1945 5.74026 13.1945 4.76066V4.29389C13.1945 3.05651 12.1814 2.05305 10.9322 2.05305H9.04728C7.79806 2.05305 6.785 3.05651 6.785 4.29389C6.785 4.86103 6.32122 5.32042 5.74866 5.32042C5.1761 5.32042 4.71232 4.86103 4.71232 4.29389C4.71232 1.92224 6.65295 0 9.04728 0H10.9322Z" fill="var(--fill-0, #010101)"/>
</g>
</svg>
