<svg preserveAspectRatio="none" width="100%" height="100%" overflow="visible" style="display: block;" viewBox="0 0 18 18" fill="none" xmlns="http://www.w3.org/2000/svg">
<g id="mingcute:ai-fill">
<path id="Star 16" d="M8.80688 2.71726C8.86001 2.51993 9.13999 2.51993 9.19312 2.71726L9.55688 4.06827C10.1314 6.20196 11.798 7.86863 13.9317 8.44312L15.2827 8.80688C15.4801 8.86001 15.4801 9.13999 15.2827 9.19312L13.9317 9.55688C11.798 10.1314 10.1314 11.798 9.55688 13.9317L9.19312 15.2827C9.13999 15.4801 8.86001 15.4801 8.80688 15.2827L8.44312 13.9317C7.86863 11.798 6.20196 10.1314 4.06826 9.55688L2.71726 9.19312C2.51993 9.13999 2.51993 8.86001 2.71726 8.80688L4.06827 8.44312C6.20196 7.86863 7.86863 6.20196 8.44312 4.06827L8.80688 2.71726Z" fill="var(--fill-0, #5940DF)"/>
</g>
</svg>
