<svg preserveAspectRatio="none" width="100%" height="100%" overflow="visible" style="display: block;" viewBox="0 0 16 11.5004" fill="none" xmlns="http://www.w3.org/2000/svg">
<path id="Union" d="M8 3.44763e-05C8.53792 3.44763e-05 9.01531 0.34428 9.18555 0.854527L10.8906 5.97171L12.2959 0.915074C12.4809 0.250206 13.17 -0.138784 13.835 0.0459329C14.4998 0.230886 14.8888 0.919988 14.7041 1.585L13.9639 4.25003H15C15.5523 4.25003 16 4.69777 16 5.25003C16 5.80232 15.5523 6.25003 15 6.25003H13.4082L12.2041 10.585C12.0569 11.1143 11.5814 11.4859 11.0322 11.5C10.4828 11.514 9.98839 11.1669 9.81445 10.6455L8 5.20218L6.18555 10.6455C6.01161 11.1669 5.51724 11.514 4.96777 11.5C4.41856 11.4859 3.94314 11.1143 3.7959 10.585L2.5918 6.25003H1C0.447715 6.25003 0 5.80232 0 5.25003C2.16463e-05 4.69777 0.447729 4.25003 1 4.25003H2.03613L1.2959 1.585C1.1112 0.919988 1.50016 0.230886 2.16504 0.0459329C2.83004 -0.138784 3.51913 0.250206 3.7041 0.915074L5.1084 5.97171L6.81445 0.854527L6.84961 0.760777C7.04431 0.302518 7.49568 3.44763e-05 8 3.44763e-05Z" fill="var(--fill-0, #121212)"/>
</svg>
