<svg preserveAspectRatio="none" width="100%" height="100%" overflow="visible" style="display: block;" viewBox="0 0 16 16" fill="none" xmlns="http://www.w3.org/2000/svg">
<g id="mingcute:ai-fill">
<path id="Star 16" d="M8.80688 1.71726C8.86001 1.51993 9.13999 1.51993 9.19312 1.71726L9.55688 3.06827C10.1314 5.20196 11.798 6.86863 13.9317 7.44312L15.2827 7.80688C15.4801 7.86001 15.4801 8.13999 15.2827 8.19312L13.9317 8.55688C11.798 9.13137 10.1314 10.798 9.55688 12.9317L9.19312 14.2827C9.13999 14.4801 8.86001 14.4801 8.80688 14.2827L8.44312 12.9317C7.86863 10.798 6.20196 9.13137 4.06827 8.55688L2.71726 8.19312C2.51993 8.13999 2.51993 7.86001 2.71726 7.80688L4.06827 7.44312C6.20196 6.86863 7.86863 5.20196 8.44312 3.06827L8.80688 1.71726Z" fill="var(--fill-0, #5940DF)"/>
</g>
</svg>
